HIERARCHY
ROOT joint_Root
{
	OFFSET 0.0 0.0 0.0
	CHANNELS 6 Xposition Yposition Zposition Zrotation Xrotation Yrotation 
	JOINT Hips
	{
		OFFSET -0.726466 93.3139 -2.00062
		CHANNELS 6 Xposition Yposition Zposition Zrotation Xrotation Yrotation 
		JOINT Spine
		{
			OFFSET 15.7357 0.0 0.0
			CHANNELS 6 Xposition Yposition Zposition Zrotation Xrotation Yrotation 
			JOINT Chest
			{
				OFFSET 8.98455 -0.406207 0.0
				CHANNELS 6 Xposition Yposition Zposition Zrotation Xrotation Yrotation 
				JOINT Neck
				{
					OFFSET 16.3773 0.0 0.0
					CHANNELS 6 Xposition Yposition Zposition Zrotation Xrotation Yrotation 
					JOINT Head
					{
						OFFSET 6.45672 0.0 0.0
						CHANNELS 6 Xposition Yposition Zposition Zrotation Xrotation Yrotation 
						End Site
						{
							OFFSET 0.0 0.0 0.0
						}
					}
				}
				JOINT Shoulder_L
				{
					OFFSET 12.9942 -0.242716 4.98039
					CHANNELS 6 Xposition Yposition Zposition Zrotation Xrotation Yrotation 
					JOINT UpperArm_L
					{
						OFFSET 5.34809 0.0 0.0
						CHANNELS 6 Xposition Yposition Zposition Zrotation Xrotation Yrotation 
						JOINT LowerArm_L
						{
							OFFSET 24.3286 1.87007e-05 0.0
							CHANNELS 6 Xposition Yposition Zposition Zrotation Xrotation Yrotation 
							JOINT Hand_L
							{
								OFFSET 22.2916 0.0 0.0
								CHANNELS 6 Xposition Yposition Zposition Zrotation Xrotation Yrotation 
								End Site
								{
									OFFSET 0.0 0.0 0.0
								}
							}
						}
					}
				}
				JOINT Shoulder_R
				{
					OFFSET 12.9945 -0.242716 -4.98039
					CHANNELS 6 Xposition Yposition Zposition Zrotation Xrotation Yrotation 
					JOINT UpperArm_R
					{
						OFFSET -5.34813 0.0 0.0
						CHANNELS 6 Xposition Yposition Zposition Zrotation Xrotation Yrotation 
						JOINT LowerArm_R
						{
							OFFSET -24.3289 0.000322201 0.0
							CHANNELS 6 Xposition Yposition Zposition Zrotation Xrotation Yrotation 
							JOINT Hand_R
							{
								OFFSET -22.2915 -0.000108084 0.0
								CHANNELS 6 Xposition Yposition Zposition Zrotation Xrotation Yrotation 
								End Site
								{
									OFFSET 0.0 0.0 0.0
								}
							}
						}
					}
				}
			}
		}
		JOINT UpperLeg_L
		{
			OFFSET -2.19248 -6.46944 0.0
			CHANNELS 6 Xposition Yposition Zposition Zrotation Xrotation Yrotation 
			JOINT LowerLeg_L
			{
				OFFSET 39.0811 0.0 -1.23785e-05
				CHANNELS 6 Xposition Yposition Zposition Zrotation Xrotation Yrotation 
				JOINT Foot_L
				{
					OFFSET 40.9854 0.0 -1.26872e-05
					CHANNELS 6 Xposition Yposition Zposition Zrotation Xrotation Yrotation 
					JOINT Toes_L
					{
						OFFSET 11.7543 0.0 0.0
						CHANNELS 6 Xposition Yposition Zposition Zrotation Xrotation Yrotation 
						End Site
						{
							OFFSET 0.0 0.0 0.0
						}
					}
				}
			}
		}
		JOINT UpperLeg_R
		{
			OFFSET -2.19251 6.46944 0.0
			CHANNELS 6 Xposition Yposition Zposition Zrotation Xrotation Yrotation 
			JOINT LowerLeg_R
			{
				OFFSET -39.0811 -0.00228153 -0.0401928
				CHANNELS 6 Xposition Yposition Zposition Zrotation Xrotation Yrotation 
				JOINT Foot_R
				{
					OFFSET -40.9854 0.0 0.0
					CHANNELS 6 Xposition Yposition Zposition Zrotation Xrotation Yrotation 
					JOINT Toes_R
					{
						OFFSET -11.7543 0.0 0.0
						CHANNELS 6 Xposition Yposition Zposition Zrotation Xrotation Yrotation 
						End Site
						{
							OFFSET 0.0 0.0 0.0
						}
					}
				}
			}
		}
	}
}
MOTION
Frames:	4
Frame Time:	0.0333333
0.000000 0.000000 0.000000 0.000000 0.000000 -0.000000 -0.420321 92.248000 -1.089940 88.042900 -1.296810 4.678610 15.735700 0.000005 -0.000001 83.202300 85.360400 -82.802900 8.984550 -0.406207 -0.000000 1.452190 -1.119760 0.812224 16.377300 -0.000001 -0.000001 1.590440 -2.215690 0.781683 6.456720 -0.000001 -0.000000 4.877030 -2.184250 -0.892874 12.994200 -0.242716 4.980390 -90.087200 0.285631 -73.029700 5.348090 -0.000007 -0.000001 -67.523400 38.481500 -15.879500 24.328600 0.000019 0.000005 1.017370 2.392050 -23.047600 22.291600 -0.000001 0.000005 3.144160 5.471920 -5.441980 12.994500 -0.242716 -4.980390 88.170000 6.190910 -73.496800 -5.348130 -0.000001 -0.000004 -65.777400 39.402000 -16.909500 -24.328900 0.000322 -0.000009 2.888840 8.926490 -18.021400 -22.291500 -0.000108 -0.000004 5.692870 5.383190 -2.398620 -2.192480 -6.469440 -0.000000 -175.711000 -6.747110 -2.176720 39.081100 -0.000007 -0.000012 -0.098374 0.228222 23.318200 40.985400 -0.000006 -0.000013 -0.141378 2.536280 -66.640100 11.754300 -0.000000 0.000003 -0.000040 -0.000466 -16.595700 -2.192510 6.469440 -0.000001 179.278000 14.772800 -178.998000 -39.081100 -0.002282 -0.040193 -0.018010 0.059868 19.611600 -40.985400 0.000008 0.000006 3.696460 6.500290 -66.314700 -11.754300 -0.000006 -0.000006 -0.005924 -0.070147 -19.427900
0.000000 0.000000 0.000000 0.000000 0.000000 -0.000000 -0.430759 92.234400 -1.120630 88.042600 -1.249430 4.701900 15.735700 0.000005 -0.000001 83.283300 85.371300 -82.894500 8.984550 -0.406207 -0.000000 1.431980 -1.103690 0.790662 16.377300 -0.000001 -0.000001 1.567620 -2.269750 0.812826 6.456720 -0.000001 -0.000000 4.913860 -2.243220 -0.839564 12.994200 -0.242716 4.980390 -90.140100 0.458111 -72.994200 5.348090 -0.000007 -0.000001 -66.336000 37.165500 -16.686600 24.328600 0.000019 0.000005 1.449230 3.166950 -24.600800 22.291600 -0.000001 0.000005 2.537250 5.471060 -5.409380 12.994500 -0.242716 -4.980390 88.177500 6.141420 -73.436600 -5.348130 -0.000001 -0.000004 -65.435900 38.441600 -17.235400 -24.328900 0.000322 -0.000009 3.080960 8.944290 -19.101600 -22.291500 -0.000108 -0.000004 4.940500 5.383090 -2.395180 -2.192480 -6.469440 -0.000000 -175.706000 -6.712380 -2.244470 39.081100 -0.000007 -0.000012 -0.098224 0.226593 23.435900 40.985400 -0.000006 -0.000013 -0.136695 2.566710 -66.669900 11.754300 -0.000000 0.000003 -0.000035 -0.000417 -16.593800 -2.192510 6.469440 -0.000001 179.285000 14.751100 -179.048000 -39.081100 -0.002282 -0.040193 -0.020129 0.065398 19.726800 -40.985400 0.000008 0.000006 3.637520 6.424670 -66.346400 -11.754300 -0.000006 -0.000006 -0.006087 -0.071623 -19.488100
0.000000 0.000000 0.000000 0.000000 0.000000 -0.000000 -0.448972 92.235700 -1.162510 88.066000 -1.198670 4.832000 15.735700 0.000005 -0.000001 83.486500 85.352900 -83.121200 8.984550 -0.406207 -0.000000 1.471950 -1.073830 0.743757 16.377300 -0.000001 -0.000001 1.602860 -2.308440 0.811453 6.456720 -0.000001 -0.000000 4.945620 -2.361350 -0.788916 12.994200 -0.242716 4.980390 -90.190700 0.621594 -72.947600 5.348090 -0.000007 -0.000001 -64.382200 34.963000 -18.257800 24.328600 0.000019 0.000005 1.915880 3.805500 -26.744000 22.291600 -0.000001 0.000005 1.907140 5.470230 -5.378370 12.994500 -0.242716 -4.980390 88.170500 6.139230 -73.370100 -5.348130 -0.000001 -0.000004 -64.409200 36.680600 -18.112400 -24.328900 0.000322 -0.000009 3.404060 8.912870 -21.009100 -22.291500 -0.000108 -0.000004 4.042960 5.373250 -2.084690 -2.192480 -6.469440 -0.000000 -175.693000 -6.703400 -2.142910 39.081100 -0.000007 -0.000012 -0.100241 0.231349 23.426600 40.985400 -0.000006 -0.000013 -0.138830 2.636210 -66.633100 11.754300 -0.000000 0.000003 -0.000035 -0.000413 -16.593700 -2.192510 6.469440 -0.000001 179.253000 14.738000 -178.948000 -39.081100 -0.002282 -0.040193 -0.019961 0.064852 19.749100 -40.985400 0.000008 0.000006 3.606470 6.360800 -66.332300 -11.754300 -0.000006 -0.000006 -0.006188 -0.072534 -19.525300
0.000000 0.000000 0.000000 0.000000 0.000000 -0.000000 -0.467628 92.232200 -1.269810 88.058400 -1.096670 4.926500 15.735700 0.000005 -0.000001 83.296400 85.339600 -82.940700 8.984550 -0.406207 -0.000000 1.494830 -1.106940 0.725226 16.377300 -0.000001 -0.000001 1.727470 -2.290010 0.796233 6.456720 -0.000001 -0.000000 4.956200 -2.388450 -0.737249 12.994200 -0.242716 4.980390 -90.217300 0.705961 -72.893800 5.348090 -0.000007 -0.000001 -61.993900 31.510400 -20.470000 24.328600 0.000019 0.000005 2.311050 4.082870 -29.543300 22.291600 -0.000001 0.000005 1.607200 5.465810 -5.214340 12.994500 -0.242716 -4.980390 88.140200 6.184710 -73.227500 -5.348130 -0.000001 -0.000004 -62.344300 34.045900 -20.066100 -24.328900 0.000322 -0.000009 3.887630 8.911420 -23.693100 -22.291500 -0.000108 -0.000004 3.118610 5.363390 -1.781850 -2.192480 -6.469440 -0.000000 -175.680000 -6.605270 -2.188930 39.081100 -0.000007 -0.000012 -0.099497 0.228585 23.522300 40.985400 -0.000006 -0.000013 -0.144903 2.633060 -66.594500 11.754300 -0.000000 0.000003 -0.000032 -0.000380 -16.592400 -2.192510 6.469440 -0.000001 179.266000 14.749500 -178.973000 -39.081100 -0.002282 -0.040193 -0.022385 0.071240 19.841300 -40.985400 0.000008 0.000006 3.572820 6.284320 -66.299900 -11.754300 -0.000006 -0.000006 -0.006076 -0.071526 -19.484200
